# xmcd
#
# Track frame offsets:
# 183
# 18043
# 33585
# 49453
# 65285
# 80018
# 97188
# 115485
# 132815
# 151325
#
# Disc length: 2235 seconds
#
#
# Revision: 0
# Processed by: cddbd v1.5.1PL0 Copyright (c) Steve Scherf et al.
# Submitted via: FreeRIP 2.90 
#
DISCID=8308b90a
DTITLE=Leo Marini - Leo Marini 30 Exitos
DYEAR=1900
DGENRE=
TTITLE0=Llanto de luna/Caribe soy/Ya lo verás
TTITLE1=Tentación/Amor de mi vida/Fichas negras
TTITLE2=Noche playera/Que será de mi/Corazón de Dios
TTITLE3=Siete puñales/Hotel de verano/Que me importa
TTITLE4=Tomando té/Maringa/El camaleón
TTITLE5=Dos almas/Deuda/Somos
TTITLE6=Dulce aventura/Que me pides corazón/Tristeza marina
TTITLE7=Amar y vivir/Amar de cobre/Falsaria
TTITLE8=Confidencia/Amigo/Cobardía
TTITLE9=Prfesentimiento/Yo vivo mi vida/En la palma de la mano
EXTD=
EXTT0=
EXTT1=
EXTT2=
EXTT3=
EXTT4=
EXTT5=
EXTT6=
EXTT7=
EXTT8=
EXTT9=
PLAYORDER=
